<?xml version="1.0" encoding="UTF-8"?>
<svg id="Capa_2" data-name="Capa 2" xmlns="http://www.w3.org/2000/svg" viewBox="0 0 169.92 45.26">
  <defs>
    <style>
      .cls-1 {
        fill: #fff;
      }
    </style>
  </defs>
  <g id="Capa_1-2" data-name="Capa 1">
    <g>
      <rect class="cls-1" x="161.09" y="36.42" width="8.16" height="8.16" rx="1.26" ry="1.26" transform="translate(80.81 188.17) rotate(-74.04)"/>
      <path class="cls-1" d="M139.51,31.98c0,1.96.57,3.6,1.7,4.92,1.13,1.28,2.56,1.92,4.29,1.92s3.26-.64,4.35-1.92c1.13-1.28,1.7-2.92,1.7-4.92s-.57-3.64-1.7-4.92c-1.09-1.28-2.54-1.92-4.35-1.92s-3.16.66-4.29,1.98c-1.13,1.28-1.7,2.9-1.7,4.86ZM131.55,31.93c0-2.52.58-4.78,1.75-6.78,1.21-2,2.88-3.56,5.03-4.69,2.18-1.17,4.65-1.75,7.4-1.75s5.16.58,7.23,1.75c2.11,1.13,3.73,2.69,4.86,4.69,1.13,2,1.7,4.26,1.7,6.78s-.57,4.8-1.7,6.84c-1.13,2.03-2.75,3.64-4.86,4.8-2.07,1.13-4.52,1.7-7.35,1.7s-5.2-.53-7.35-1.58c-2.11-1.09-3.77-2.64-4.97-4.63-1.17-2-1.75-4.37-1.75-7.12ZM115.95,38.59c1.58,0,2.9-.3,3.96-.9,1.05-.64,1.92-1.58,2.6-2.83v-6.05c-.45-1.21-1.26-2.17-2.43-2.88-1.17-.72-2.54-1.07-4.12-1.07-1.77,0-3.31.64-4.63,1.92-1.28,1.28-1.92,2.9-1.92,4.86,0,1.28.3,2.47.9,3.56.6,1.05,1.39,1.88,2.37,2.49,1.02.6,2.11.9,3.28.9ZM130.42,0v44.58h-7.91v-2.6c-2.86,2.18-5.91,3.28-9.15,3.28-2.3,0-4.35-.55-6.16-1.64-1.81-1.09-3.24-2.66-4.29-4.69-1.02-2.03-1.53-4.43-1.53-7.18s.55-5.05,1.64-7.01c1.13-2,2.67-3.5,4.63-4.52,1.96-1.05,4.2-1.58,6.72-1.58,1.62,0,3.15.26,4.58.79,1.43.49,2.64,1.22,3.62,2.2V0h7.85ZM87.15,24.86c-1.77,0-3.18.6-4.24,1.81-1.05,1.21-1.58,2.83-1.58,4.86v.51l10.85-3.67c-.79-2.34-2.47-3.5-5.03-3.5ZM87.77,38.54c1.58,0,3.22-.55,4.92-1.64l3.5,5.88c-1.36.75-2.79,1.36-4.29,1.81-1.51.45-2.94.68-4.29.68-2.94,0-5.48-.55-7.63-1.64-2.11-1.13-3.71-2.69-4.8-4.69-1.09-2.03-1.64-4.35-1.64-6.95,0-2.41.62-4.63,1.86-6.67,1.28-2.03,3.01-3.64,5.2-4.8,2.18-1.21,4.58-1.81,7.18-1.81,3.54,0,6.44,1.04,8.7,3.11,2.3,2.07,3.79,5.03,4.46,8.87l-18.08,5.76c1.21,1.39,2.84,2.09,4.92,2.09ZM74.46,42.38c-1.09.87-2.47,1.56-4.12,2.09-1.62.53-3.22.79-4.8.79-4.29,0-7.7-1.15-10.23-3.45-2.49-2.34-3.73-5.54-3.73-9.61,0-2.64.6-4.93,1.81-6.89,1.24-2,2.86-3.5,4.86-4.52,2-1.05,4.14-1.58,6.44-1.58,4.11,0,7.44,1.09,10,3.28l-3.84,5.09c-1.62-1.28-3.43-1.92-5.42-1.92-1.66,0-3.07.62-4.24,1.86-1.13,1.24-1.7,2.81-1.7,4.69s.62,3.47,1.86,4.75c1.24,1.24,2.86,1.86,4.86,1.86,1.73,0,3.16-.47,4.29-1.41l3.96,4.97ZM52.51,42.38c-1.09.87-2.47,1.56-4.12,2.09-1.62.53-3.22.79-4.8.79-4.29,0-7.7-1.15-10.23-3.45-2.49-2.34-3.73-5.54-3.73-9.61,0-2.64.6-4.93,1.81-6.89,1.24-2,2.86-3.5,4.86-4.52,2-1.05,4.14-1.58,6.44-1.58,4.11,0,7.44,1.09,10,3.28l-3.84,5.09c-1.62-1.28-3.43-1.92-5.42-1.92-1.66,0-3.07.62-4.24,1.86-1.13,1.24-1.7,2.81-1.7,4.69s.62,3.47,1.86,4.75c1.24,1.24,2.86,1.86,4.86,1.86,1.73,0,3.16-.47,4.29-1.41l3.96,4.97Z"/>
      <path class="cls-1" d="M14.58,38.82c2.75,0,4.75-1.24,5.99-3.73v-6.05c-.45-1.21-1.24-2.17-2.37-2.88-1.09-.72-2.39-1.07-3.9-1.07-1.73,0-3.22.64-4.46,1.92-1.21,1.28-1.81,2.9-1.81,4.86,0,1.28.3,2.47.9,3.56.6,1.05,1.39,1.88,2.37,2.49,1.02.6,2.11.9,3.28.9ZM28.48,19.89v24.69h-7.91v-3.05c-2.37,2.49-5.12,3.73-8.25,3.73-3.65,0-6.63-1.09-8.93-3.28-2.26-2.18-3.39-5.42-3.39-9.72,0-2.71.55-5.09,1.64-7.12,1.13-2.07,2.62-3.67,4.46-4.8,1.85-1.13,3.82-1.7,5.93-1.7s3.92.34,5.2,1.02c1.28.64,2.41,1.56,3.39,2.77l.51-2.54h7.35Z"/>
    </g>
  </g>
</svg>