<svg width="134" height="36" viewBox="0 0 134 36" fill="none" xmlns="http://www.w3.org/2000/svg">
<g clip-path="url(#clip0_527_427)">
<path d="M14.0027 9.20326C14.0573 9.27323 14.8331 10.3012 15.6144 11.3238C17.1496 13.342 17.2261 13.4496 17.2315 13.4496C17.4064 13.6811 17.6249 13.8533 17.8544 13.9986C17.8926 14.0255 17.9309 14.0524 17.9746 14.0739C18.215 14.2085 18.4717 14.2946 18.7449 14.343C18.7613 14.343 18.7777 14.3592 18.7995 14.3592C18.9033 14.3753 19.0126 14.3807 19.1164 14.3807C19.1273 14.3807 19.1328 14.3807 19.1437 14.3807C19.2585 14.3807 19.3677 14.343 19.4825 14.3269C19.6136 14.3054 19.7502 14.3054 19.8758 14.2623C20.1162 14.1816 20.3457 14.0686 20.5587 13.9125L33.7309 4.22494C34.7853 3.44994 35.0039 1.97528 34.2172 0.936555C33.4304 -0.0967831 31.9335 -0.312062 30.879 0.468324L19.619 8.76732L15.8657 3.82129C15.4833 3.32077 14.926 2.99247 14.2977 2.90097C13.664 2.80948 13.0357 2.96556 12.533 3.3423C12.025 3.71365 11.6972 4.26799 11.6043 4.88692C11.5169 5.51123 11.6753 6.13016 12.0523 6.63068L14.0027 9.20326Z" fill="#057FFF"/>
<path d="M27.6445 19.3267L32.6654 15.6293C33.7198 14.8543 33.9383 13.3796 33.1516 12.3409C32.7747 11.8404 32.2174 11.5174 31.5836 11.4259C30.9499 11.3398 30.3216 11.4959 29.8135 11.8673L27.1856 13.8048C27.0654 13.8909 25.2898 15.2041 24.0606 16.1083L22.886 16.9748C22.886 16.9748 22.8805 16.9748 22.875 16.9801L22.8477 17.0017C22.3943 17.3515 22.0883 17.852 21.979 18.444C21.9736 18.4709 21.9626 18.4979 21.9626 18.5194C21.9626 18.5463 21.9626 18.5678 21.9626 18.6163C21.8971 19.2083 22.061 19.7949 22.4161 20.2631L32.2611 33.2283C32.7309 33.8472 33.4521 34.1702 34.1787 34.1702C34.6759 34.1702 35.1731 34.0195 35.5992 33.7073C36.6482 32.9323 36.8667 31.4576 36.0745 30.4189L27.65 19.3267H27.6445Z" fill="#057FFF"/>
<path d="M3.87896 20.3709C3.37087 20.7476 3.0376 21.2966 2.94473 21.9155C2.85185 22.5398 3.01029 23.1587 3.39272 23.6539C3.76969 24.1544 4.32696 24.4773 4.96071 24.5688C5.07544 24.5849 5.19017 24.5903 5.3049 24.5903C5.81846 24.5903 6.31562 24.4289 6.73084 24.1221L9.52808 22.0608C13.5327 19.1115 13.6584 19.02 13.6584 19.02C14.1228 18.6755 14.4451 18.1696 14.5653 17.5615C14.5708 17.5346 14.5817 17.5077 14.5872 17.4754C14.5872 17.4754 14.5872 17.4323 14.5872 17.4C14.6582 16.8026 14.4943 16.2106 14.1337 15.7316L4.28871 2.76644C3.50199 1.72772 2.00503 1.51244 0.950597 2.28744C-0.0983698 3.06244 -0.311441 4.5371 0.475284 5.57582L8.89979 16.6681L3.87896 20.3655V20.3709Z" fill="#057FFF"/>
<path d="M22.5199 26.7968C22.4653 26.7269 21.6895 25.6989 20.9082 24.6763C19.3676 22.642 19.2911 22.5505 19.2911 22.5505C19.1162 22.319 18.8977 22.1468 18.6682 22.0015C18.63 21.9746 18.5918 21.9477 18.5481 21.9262C18.3077 21.7916 18.0509 21.7055 17.7777 21.6571C17.7613 21.6571 17.7449 21.6409 17.7231 21.6409C17.6193 21.6248 17.51 21.6194 17.4062 21.6194C17.3953 21.6194 17.3898 21.6194 17.3789 21.6194C17.2642 21.6194 17.1549 21.6571 17.0402 21.6732C16.909 21.6947 16.7725 21.6947 16.6468 21.7378C16.4064 21.8185 16.177 21.9315 15.9639 22.0876L2.79171 31.7752C1.73728 32.5502 1.51874 34.0248 2.30547 35.0635C3.09219 36.0969 4.58915 36.3122 5.64358 35.5318L16.9036 27.2328L20.6569 32.1788C21.0394 32.6793 21.5966 33.0076 22.2249 33.0991C22.8587 33.1906 23.4869 33.0345 23.9896 32.6578C24.4977 32.2865 24.8255 31.7321 24.9183 31.1132C25.0058 30.4889 24.8473 29.8699 24.4703 29.3694L22.5199 26.7968Z" fill="#057FFF"/>
<path d="M61.5121 3.80518H55.3166C55.1964 3.80518 55.0872 3.87514 55.0325 3.98278L41.5216 31.7914C41.4725 31.8883 41.4834 32.0013 41.538 32.0874C41.5927 32.1789 41.6965 32.2327 41.8057 32.2327H47.9575C48.0777 32.2327 48.1869 32.1628 48.2416 32.0605L50.7383 26.9907H66.0959L68.5489 32.0605C68.6035 32.1682 68.7128 32.2381 68.833 32.2381H75.0285C75.1377 32.2381 75.2361 32.1843 75.2962 32.0928C75.3563 32.0013 75.3617 31.8883 75.3126 31.7968L61.7962 3.98278C61.7416 3.87514 61.6323 3.80518 61.5121 3.80518ZM53.3116 21.4849L58.4144 10.6887L63.5172 21.4849H53.3116Z" fill="#057FFF"/>
<path d="M89.9598 3.8052H78.1261C77.9513 3.8052 77.8147 3.94513 77.8147 4.11197V31.9206C77.8147 32.0928 77.9567 32.2274 78.1261 32.2274H89.9598C94.7074 32.2274 98.6629 30.7743 101.406 28.0241C104.017 25.4084 105.41 21.7648 105.339 17.766C105.268 14.0363 103.924 10.6188 101.548 8.14845C98.8104 5.30139 94.8058 3.79443 89.9652 3.79443L89.9598 3.8052ZM96.7671 24.106C95.15 25.7421 92.8608 26.5709 89.9543 26.5709H84.0703V9.39168H89.9543C96.4885 9.39168 98.947 13.708 99.0672 17.7499C99.1382 20.274 98.3242 22.5291 96.7671 24.106Z" fill="#057FFF"/>
<path d="M129.695 17.5023C131.896 16.3613 133.098 14.4938 133.098 12.1795C133.098 6.85675 129.203 3.80518 122.412 3.80518H108.125C107.951 3.80518 107.814 3.94511 107.814 4.11195V31.9206C107.814 32.0928 107.956 32.2274 108.125 32.2274H122.412C129.995 32.2274 134 29.2888 134 23.7346C134 21.781 132.656 18.7186 129.695 17.4969V17.5023ZM114.031 9.19253H122.412C125.909 9.19253 126.832 11.2269 126.832 12.2979C126.832 14.0471 125.302 14.9674 122.412 14.9674H114.031V9.18715V9.19253ZM122.412 26.727H114.031V20.1933H122.412C124.587 20.1933 127.739 21.4419 127.739 23.6969C127.739 24.2028 127.482 26.727 122.412 26.727Z" fill="#057FFF"/>
</g>
<defs>
<clipPath id="clip0_527_427">
<rect width="134" height="36" fill="white"/>
</clipPath>
</defs>
</svg>
