<svg width="212" height="89" viewBox="0 0 212 89" fill="none" xmlns="http://www.w3.org/2000/svg">
<g clip-path="url(#clip0_600_1852)">
<path d="M84.7044 35.9138C82.1589 35.4226 79.6475 35.5777 77.2215 36.3963C76.3502 36.6979 75.718 36.9564 75.2824 37.1546C72.6429 38.3781 70.4304 40.0756 68.6964 42.2038C66.9452 44.3407 65.7664 46.7792 65.2197 49.4762C64.6645 52.1731 64.8268 54.9821 65.7066 57.7825C65.8774 58.3943 66.1935 59.1956 66.6719 60.2124C68.0301 63.1764 69.9777 65.5546 72.472 67.3124C74.9663 69.0529 77.7682 70.0783 80.8263 70.354C83.8844 70.6211 86.9169 70.061 89.8554 68.691C94.34 66.5886 97.5262 63.0817 99.3201 58.2392C99.5337 57.6446 99.5166 57.0415 99.2518 56.4814C98.9613 55.8524 98.4915 55.456 97.9107 55.3268L94.5536 54.1291C94.1863 53.9654 93.6139 53.862 92.8708 54.2066C92.3155 54.4565 91.9226 54.8873 91.7517 55.3785C91.2477 56.5848 90.496 57.7308 89.5393 58.7648C88.574 59.7988 87.5661 60.557 86.5239 61.0482C84.4652 62.0046 82.4407 62.3665 80.5017 62.1252C78.7505 61.9012 77.2556 61.0654 75.9829 59.5575L93.8446 51.2081C94.9294 50.6997 95.758 49.8639 96.2791 48.7179C96.8343 47.5202 96.9027 46.3742 96.467 45.2885L95.8776 43.8237C95.0234 41.9453 93.5541 40.2651 91.5382 38.8003C89.5479 37.3614 87.2585 36.3791 84.7386 35.8879L84.7044 35.9138ZM88.0957 46.3915L73.5569 53.1813C73.3092 51.4924 73.5825 49.8208 74.4282 48.1061C75.3251 46.2708 76.7089 44.9439 78.6736 44.0219C80.6383 43.1 82.3639 42.9449 83.9356 43.5394C85.4647 44.1253 86.8741 45.0818 88.1042 46.3828L88.0957 46.3915Z" fill="white"/>
<path d="M109.169 20.9037C109.169 20.335 108.956 19.8266 108.563 19.413C108.153 19.0167 107.657 18.8013 107.085 18.8013H103.181C102.617 18.8013 102.096 19.0167 101.703 19.4303C101.31 19.8266 101.097 20.3436 101.097 20.9037L100.9 31.5537V57.8944L101.097 68.5703C101.097 69.139 101.31 69.6646 101.703 70.0609C102.096 70.4573 102.609 70.6899 103.181 70.6899H107.068C107.632 70.6899 108.153 70.4745 108.546 70.0609C108.939 69.6646 109.169 69.1476 109.169 68.5875L109.366 57.8686V31.5279L109.169 20.9037Z" fill="white"/>
<path d="M141.391 36.4822C140.998 36.0858 140.451 35.8704 139.845 35.8704H136.154C135.599 35.8704 135.104 36.0686 134.677 36.4564C134.232 36.87 134.002 37.4128 134.002 38.0246L133.805 55.7057C133.805 57.8856 133.199 59.5228 131.934 60.7032C130.653 61.9095 129.192 62.4955 127.45 62.4955C125.707 62.4955 124.238 61.9095 122.94 60.7032C121.658 59.5228 121.043 57.8856 121.043 55.6884L120.778 38.0332C120.778 37.4214 120.565 36.8872 120.155 36.4736C119.762 36.0772 119.215 35.8618 118.609 35.8618H114.987C114.432 35.8618 113.936 36.06 113.509 36.4477C113.065 36.8613 112.834 37.4042 112.834 38.0332L112.569 55.7143C112.569 58.2906 113.125 60.7377 114.218 62.9866C115.328 65.27 117.028 67.1312 119.249 68.527C121.479 69.9229 124.204 70.6381 127.364 70.6381C130.055 70.6381 132.268 69.9488 133.968 68.5615C134.087 68.8803 134.266 69.156 134.506 69.4145C134.899 69.8281 135.411 70.0435 135.983 70.0435H139.939C140.562 70.0435 141.109 69.8023 141.51 69.3628C141.895 68.9406 142.091 68.4322 142.091 67.8722L142.159 56.4898L141.963 38.0246C141.98 37.43 141.767 36.8786 141.374 36.465L141.391 36.4822Z" fill="white"/>
<path d="M176.174 37.1973H172.151C171.245 37.1973 170.528 37.6626 170.144 38.5156L161.601 58.325L152.991 38.507C152.606 37.6712 151.923 37.2059 151.052 37.2059H146.969C146.405 37.2059 145.884 37.4213 145.491 37.8349C145.098 38.2312 144.867 38.7827 144.867 39.3945C144.867 39.7133 144.918 39.9632 145.012 40.1958L156.98 69.7246L151.257 85.8117C150.966 86.5441 151.043 87.3109 151.479 87.9744C151.914 88.6379 152.598 89.0084 153.401 89.0084H157.091C157.578 89.0084 158.039 88.8791 158.432 88.6206C158.851 88.3535 159.158 87.9658 159.312 87.5005L178.079 40.1441L178.096 40.0924C178.318 39.4031 178.242 38.7396 177.849 38.1365C177.481 37.5419 176.875 37.2059 176.149 37.2059L176.174 37.1973Z" fill="white"/>
<path d="M211.787 52.4229C211.642 49.3899 210.787 46.5723 209.233 44.0735C207.678 41.5747 205.611 39.5671 203.065 38.0937C200.511 36.6202 197.684 35.8706 194.685 35.8706C191.687 35.8706 188.672 36.6719 186.024 38.2401C183.384 39.8084 181.283 41.9366 179.754 44.5647C178.225 47.2099 177.447 50.1309 177.447 53.2587C177.447 56.3865 178.225 59.3248 179.754 61.9959C181.283 64.6584 183.393 66.7953 186.041 68.3376C188.672 69.88 191.593 70.6641 194.702 70.6641C196.548 70.6641 198.47 70.216 200.434 69.3199C201.647 68.7598 202.672 68.1222 203.518 67.3898L203.544 68.3893L203.561 68.4841C203.629 69.0528 203.877 69.5612 204.295 69.9834C204.859 70.5521 205.44 70.6727 205.833 70.6727H209.327C209.976 70.6727 210.548 70.4315 211.001 69.9834C211.437 69.544 211.659 69.0097 211.676 68.4152C211.719 67.9327 211.778 66.8901 211.872 65.2271C211.966 63.5296 212 61.5478 212 59.3248C211.983 57.1706 211.924 54.8614 211.787 52.4229ZM190.329 45.659C191.644 44.8749 193.088 44.4613 194.617 44.4613C196.146 44.4613 197.658 44.849 198.965 45.6159C200.281 46.3828 201.348 47.4598 202.143 48.7954C202.92 50.1223 203.33 51.6044 203.33 53.1812C203.33 54.758 202.937 56.2659 202.168 57.6101C201.408 58.9629 200.34 60.0572 199.016 60.8413C197.701 61.6254 196.249 62.039 194.668 62.039C193.088 62.039 191.636 61.6426 190.32 60.8413C188.988 60.0399 187.92 58.9629 187.134 57.6273C186.357 56.309 185.947 54.8356 185.947 53.2415C185.947 51.6474 186.34 50.1826 187.134 48.8557C187.937 47.5546 189.022 46.4603 190.337 45.6676L190.329 45.659Z" fill="white"/>
<path d="M31.7943 43.9012C30.2396 41.4024 28.1724 39.3947 25.6268 37.9213C23.0727 36.4479 20.2452 35.6982 17.2469 35.6982C14.2486 35.6982 11.2332 36.4996 8.58515 38.0678C5.94561 39.636 3.84423 41.7643 2.31518 44.3923C0.786128 47.0376 0.00878906 49.9586 0.00878906 53.0864C0.00878906 56.2142 0.786128 59.1524 2.31518 61.8235C3.84423 64.486 5.95415 66.6229 8.60223 68.1653C11.2418 69.7076 14.1547 70.4917 17.264 70.4917C19.1091 70.4917 21.0311 70.0437 22.9958 69.1476C24.2088 68.5875 25.2339 67.9499 26.0795 67.2175L26.1052 68.217L26.1223 68.3118C26.1906 68.8804 26.4383 69.3888 26.8569 69.811C27.4207 70.3797 28.0015 70.5003 28.403 70.5003H31.8968C32.546 70.5003 33.1183 70.2591 33.571 69.811C34.0067 69.3716 34.2288 68.8374 34.2459 68.2428C34.2886 67.7603 34.3484 66.7177 34.4423 65.0547C34.5363 63.3573 34.5705 61.3755 34.5705 59.1524C34.5705 56.9293 34.5021 54.6977 34.374 52.2678C34.2117 49.2262 33.3575 46.4086 31.8028 43.9098L31.7943 43.9012ZM12.8904 45.4952C14.2059 44.7111 15.641 44.2975 17.17 44.2975C18.6991 44.2975 20.2111 44.6853 21.518 45.4521C22.8335 46.219 23.9013 47.2961 24.6957 48.6316C25.4731 49.9586 25.8831 51.4406 25.8831 53.0174C25.8831 54.5943 25.4901 56.1022 24.7213 57.4463C23.9611 58.7991 22.8933 59.8934 21.5693 60.6775C20.2538 61.4616 18.8016 61.8752 17.2213 61.8752C15.641 61.8752 14.1888 61.4789 12.8733 60.6775C11.5407 59.8762 10.473 58.7991 9.68709 57.4636C8.90975 56.1452 8.49972 54.6718 8.49972 53.0778C8.49972 51.4837 8.89266 50.0189 9.68709 48.6919C10.4901 47.3736 11.5578 46.2966 12.8904 45.5038V45.4952Z" fill="white"/>
<path d="M28.9667 66.9935C34.1091 66.3042 38.6706 63.9088 42.8307 60.85C47.3666 57.5154 51.4925 53.6552 55.2596 49.4848C58.7789 45.5901 61.9054 41.4111 64.8183 37.0511C68.5341 31.4935 72.0108 25.6342 73.9242 19.1719C75.6241 13.3988 77.3924 2.40411 69.6019 0.249984C65.8604 -0.783998 62.1531 1.48215 59.693 4.1705C57.4549 6.62621 55.4475 9.38349 53.5938 12.1494C46.2903 23.0148 41.8483 35.7242 40.5499 48.761C40.2168 52.0439 40.1826 55.5853 41.3102 58.7217C42.5232 62.0563 44.7356 64.848 47.8877 66.5369C54.3456 69.9921 61.4783 68.5617 67.8849 65.7786C69.4567 65.0979 70.9943 64.331 72.5404 63.5728C74.4026 62.6422 75.0689 59.8246 73.967 58.0927C72.7454 56.1626 70.5415 55.6628 68.5341 56.6537C67.2272 57.3086 65.9373 57.9462 64.6047 58.5407C64.5876 58.5407 63.3917 59.0577 64.1007 58.7647C63.7334 58.9112 63.3661 59.0577 62.9902 59.2042C62.2556 59.4799 61.5124 59.7384 60.7522 59.9452C59.9919 60.152 59.2402 60.3157 58.4714 60.4794C57.2584 60.7466 59.2061 60.4536 57.9674 60.557C57.7539 60.5742 57.5489 60.6001 57.3353 60.6087C56.6861 60.6518 56.0454 60.6345 55.4133 60.5915C55.2254 60.5742 54.1918 60.4191 55.1912 60.5915C54.8752 60.5398 54.5591 60.4881 54.243 60.4019C53.6109 60.2554 53.0044 60.0572 52.3979 59.8591C51.4241 59.523 53.0557 60.2726 52.1844 59.7557C51.9965 59.6523 51.8171 59.5575 51.6291 59.4627C51.3558 59.299 51.0995 59.1266 50.8262 58.9543C49.9805 58.4373 51.3387 59.5144 50.6382 58.8078C50.4161 58.5838 50.177 58.3856 49.9634 58.153C49.8011 57.9893 49.2886 57.2396 49.7926 57.9806C49.5961 57.6877 49.4082 57.3947 49.2373 57.0931C49.1861 56.9984 48.7248 55.9385 49.0409 56.7485C48.8273 56.1884 48.6565 55.6025 48.5283 55.0166C48.5027 54.9132 48.3062 53.7241 48.4258 54.6461C48.3746 54.2842 48.3489 53.9137 48.3319 53.5431C48.2891 52.8021 48.2891 52.0525 48.3062 51.3201C48.3489 49.9673 48.5027 48.6059 48.6479 47.2531C48.776 46.0295 48.5198 48.0544 48.6992 46.8395C48.7504 46.469 48.8017 46.1071 48.8615 45.7366C48.9811 45.0042 49.1007 44.2718 49.2459 43.5394C49.7755 40.7304 50.4589 37.9731 51.2875 35.2417C51.6804 33.9406 52.1331 32.6481 52.5944 31.3728C52.8421 30.6835 53.124 29.977 53.3974 29.2876C53.4913 29.0636 53.5853 28.8224 53.6707 28.5983C53.3717 29.3393 53.9441 27.9693 54.0039 27.8401C55.1485 25.2379 56.4384 22.696 57.882 20.2317C59.3171 17.776 60.9145 15.4151 62.5888 13.1231C63.3148 12.1408 62.1104 13.709 62.8621 12.7526C63.05 12.5113 63.2465 12.2614 63.443 12.0201C63.8615 11.4859 64.2972 10.9689 64.7329 10.4519C65.1429 9.96942 65.5614 9.49551 66.0227 9.05607C66.2363 8.85789 66.4413 8.65971 66.6719 8.47014C65.9971 9.01298 67.1503 8.20303 67.2784 8.12548L67.5689 7.96177C67.1247 8.1341 67.0905 8.15133 67.5176 8.00485C68.517 7.95315 66.8684 7.91007 67.5176 7.95315C67.791 7.979 68.4402 8.07378 67.492 7.91007C67.3724 7.84114 67.2443 7.78944 67.1247 7.72051C67.5176 7.96177 67.5091 7.91868 67.0734 7.59987C67.1417 7.66881 67.2015 7.72912 67.287 7.79805C66.9709 7.35861 66.9453 7.31553 67.1845 7.69466C67.6287 8.49599 67.0905 7.13458 67.2015 7.69466C67.2528 7.93592 67.3297 8.20303 67.398 8.43568C67.4749 8.88373 67.4749 8.84927 67.398 8.2892C67.4236 8.50461 67.4407 8.70279 67.4407 8.9182C67.5091 10.2451 67.4151 11.6066 67.2443 12.9163C67.3638 12.0288 67.1759 13.2523 67.1674 13.3299C67.1247 13.5711 67.0734 13.821 67.0392 14.0623C66.8684 14.9153 66.6548 15.7597 66.4157 16.6041C66.0313 17.9311 65.57 19.2322 65.0745 20.516C65.3735 19.7578 64.9037 20.9038 64.8866 20.9555C64.7841 21.1795 64.6731 21.4208 64.5705 21.6448C64.2032 22.4547 63.8103 23.2561 63.4003 24.0402C62.0335 26.6596 60.4874 29.1843 58.8644 31.6572C57.5232 33.7165 56.148 35.7673 54.6872 37.7491C54.5249 37.9645 53.7647 39.1708 54.3541 38.1885C54.0807 38.6366 53.6707 39.0674 53.3376 39.481C52.6115 40.3857 51.8598 41.2732 51.0995 42.1693C47.5801 46.2363 43.7618 50.0535 39.5419 53.388C40.3022 52.7763 39.4907 53.4311 39.354 53.5173C39.0636 53.7327 38.7731 53.9395 38.4827 54.1549C37.9531 54.5427 37.4149 54.9132 36.8768 55.2751C35.8346 55.9644 34.7669 56.602 33.6649 57.1879C33.178 57.4378 32.6911 57.6705 32.2042 57.9031C31.3585 58.2995 33.0499 57.5843 32.1786 57.9203C31.8625 58.041 31.5465 58.1702 31.2133 58.2822C30.752 58.4459 30.2737 58.5838 29.7868 58.7217C29.428 58.8165 27.6 59.118 28.9923 58.9371C26.9508 59.2128 24.9177 60.5742 25.0288 62.9351C25.1056 64.8997 26.7799 67.2693 28.9923 66.9763L28.9667 66.9935Z" fill="white"/>
</g>
<defs>
<clipPath id="clip0_600_1852">
<rect width="212" height="89" fill="white"/>
</clipPath>
</defs>
</svg>
