<svg width="241" height="35" viewBox="0 0 241 35" fill="none" xmlns="http://www.w3.org/2000/svg">
<g clip-path="url(#clip0_631_121)">
<path d="M25.7162 11.5444V34.623H18.0464V32.3598C16.5526 34.1167 14.2868 35.0002 11.269 35.0002C9.18363 35.0002 7.27873 34.5138 5.57434 33.551C3.86996 32.5881 2.50645 31.2084 1.50387 29.4216C0.50129 27.6349 0 25.5603 0 23.2177C0 20.8751 0.50129 18.8105 1.50387 17.0336C2.50645 15.2568 3.85993 13.897 5.57434 12.944C7.27873 11.9911 9.18363 11.5146 11.269 11.5146C13.976 11.5146 16.1114 12.2988 17.6654 13.8672V11.5544H25.7162V11.5444ZM16.4323 27.218C17.3346 26.2551 17.7858 24.9151 17.7858 23.2078C17.7858 21.5005 17.3346 20.22 16.4323 19.2671C15.53 18.3141 14.367 17.8377 12.9633 17.8377C11.5597 17.8377 10.3967 18.3141 9.49443 19.2671C8.5921 20.22 8.14094 21.5302 8.14094 23.2078C8.14094 24.8853 8.5921 26.2452 9.49443 27.218C10.3967 28.1808 11.5597 28.6672 12.9633 28.6672C14.367 28.6672 15.53 28.1808 16.4323 27.218Z" fill="white"/>
<path d="M33.4962 32.8362C31.9322 31.3969 31.1501 29.3323 31.1501 26.6522V3.85156H39.2009V26.2353C39.2009 27.079 39.4214 27.7143 39.8525 28.161C40.2937 28.6077 40.9052 28.836 41.6973 28.836C42.349 28.836 42.9505 28.697 43.522 28.4191L43.8629 34.4145C42.6497 34.8016 41.3865 35.0002 40.0932 35.0002C37.2659 35.0002 35.0702 34.2756 33.5062 32.8362" fill="white"/>
<path d="M50.149 32.8362C48.585 31.3969 47.803 29.3323 47.803 26.6522V3.85156H55.8537V26.2353C55.8537 27.079 56.0743 27.7143 56.5054 28.161C56.9465 28.6077 57.5581 28.836 58.3501 28.836C59.0018 28.836 59.6033 28.697 60.1748 28.4191L60.5157 34.4145C59.3026 34.8016 58.0393 35.0002 56.746 35.0002C53.9187 35.0002 51.7231 34.2756 50.159 32.8362" fill="white"/>
<path d="M78.552 28.4191C77.9906 28.6971 77.379 28.836 76.7273 28.836C75.9353 28.836 75.3237 28.6177 74.8826 28.161C74.4414 27.7144 74.2309 27.0692 74.2309 26.2354H66.1802V26.6523C66.1802 29.3323 66.9622 31.397 68.5262 32.8363C70.0902 34.2756 72.2859 35.0002 75.1132 35.0002C76.4165 35.0002 77.6697 34.8017 78.8829 34.4146L78.542 28.4191H78.552Z" fill="white"/>
<path d="M96.0672 12.2889C97.3806 11.7727 98.8844 11.5146 100.579 11.5146V18.6814C99.8469 18.602 99.2353 18.5524 98.7541 18.5524C97.0297 18.5524 95.6862 19.009 94.7037 19.9321C93.7312 20.8553 93.2399 22.2648 93.2399 24.1706V34.6131H85.1892V11.5444H92.8589V14.6116C93.6811 13.5793 94.7438 12.8051 96.0572 12.2889" fill="white"/>
<path d="M129.172 11.5441V34.6227H121.503V32.1907C120.65 33.1139 119.638 33.8087 118.455 34.2852C117.272 34.7616 116.008 34.9999 114.685 34.9999C111.717 34.9999 109.351 34.1363 107.587 32.3992C105.822 30.6621 104.94 28.0614 104.94 24.5971V11.5441H112.991V23.2968C112.991 25.0041 113.311 26.2449 113.963 27.0291C114.615 27.8133 115.557 28.2004 116.8 28.2004C118.044 28.2004 119.106 27.7636 119.918 26.8802C120.721 25.9967 121.122 24.6468 121.122 22.8303V11.5342H129.172V11.5441Z" fill="white"/>
<path d="M143.449 11.5444H135.398V34.623H143.449V11.5444Z" fill="white"/>
<path d="M144.151 4.6852C144.151 7.27595 142.035 9.37039 139.419 9.37039C136.802 9.37039 134.687 7.27595 134.687 4.6852C134.687 2.09444 136.802 0 139.419 0C142.035 0 144.151 2.09444 144.151 4.6852Z" fill="white"/>
<path d="M152.382 34.3548C150.517 33.9181 149.023 33.3523 147.89 32.6574L150.307 27.2079C151.349 27.8531 152.592 28.3594 154.036 28.7366C155.48 29.1138 156.904 29.3024 158.317 29.3024C159.621 29.3024 160.543 29.1733 161.094 28.9053C161.646 28.6373 161.916 28.2502 161.916 27.7539C161.916 27.2575 161.586 26.8903 160.924 26.6818C160.262 26.4734 159.21 26.2649 157.766 26.0763C155.931 25.848 154.367 25.5601 153.084 25.1929C151.8 24.8256 150.688 24.1605 149.755 23.1778C148.823 22.1951 148.362 20.8253 148.362 19.0684C148.362 17.6191 148.803 16.3188 149.675 15.1872C150.547 14.0556 151.831 13.1622 153.505 12.5071C155.189 11.852 157.194 11.5244 159.54 11.5244C161.205 11.5244 162.859 11.6932 164.493 12.0307C166.127 12.3681 167.501 12.8446 168.604 13.46L166.187 18.8698C164.152 17.7482 161.947 17.1923 159.58 17.1923C158.307 17.1923 157.375 17.3412 156.783 17.6291C156.192 17.9269 155.891 18.3041 155.891 18.7805C155.891 19.3165 156.212 19.6838 156.863 19.8923C157.515 20.1007 158.588 20.3191 160.082 20.5375C161.977 20.8154 163.541 21.143 164.784 21.5003C166.027 21.8676 167.11 22.5326 168.022 23.4955C168.935 24.4583 169.396 25.8083 169.396 27.5454C169.396 28.9748 168.955 30.2553 168.082 31.3869C167.21 32.5185 165.917 33.4118 164.202 34.0471C162.498 34.6923 160.443 35.01 158.036 35.01C156.112 35.01 154.227 34.7916 152.362 34.3647" fill="white"/>
<path d="M210.602 14.026C212.286 15.7035 213.118 18.2347 213.118 21.6196V34.623H205.068V22.9199C205.068 21.3218 204.767 20.1505 204.155 19.3961C203.544 18.6417 202.692 18.2645 201.589 18.2645C200.376 18.2645 199.403 18.6814 198.661 19.5251C197.929 20.3589 197.558 21.6394 197.558 23.3368V34.623H189.508V22.9199C189.508 19.813 188.345 18.2645 186.039 18.2645C184.795 18.2645 183.803 18.6814 183.071 19.5251C182.339 20.3589 181.968 21.6394 181.968 23.3368V34.623H173.917V11.5444H181.587V14.2841C182.429 13.3609 183.442 12.6661 184.615 12.2095C185.788 11.7529 187.061 11.5146 188.445 11.5146C190.059 11.5146 191.493 11.8124 192.766 12.3981C194.039 12.9837 195.072 13.8771 195.854 15.0782C196.756 13.9367 197.899 13.0532 199.283 12.4378C200.666 11.8224 202.18 11.5146 203.814 11.5146C206.642 11.5146 208.887 12.3485 210.572 14.026" fill="white"/>
<path d="M229.33 11.5146C222.883 11.5146 217.66 16.6862 217.66 23.0688C217.66 29.4514 222.883 34.623 229.33 34.623C235.777 34.623 241 29.4514 241 23.0688C241 16.6862 235.777 11.5146 229.33 11.5146ZM229.33 27.8533C226.663 27.8533 224.497 25.7092 224.497 23.0688C224.497 20.4284 226.663 18.2844 229.33 18.2844C231.997 18.2844 234.162 20.4284 234.162 23.0688C234.162 25.7092 231.997 27.8533 229.33 27.8533Z" fill="white"/>
<path d="M66.1802 23.3567H74.2309V17.4407H79.4443V11.4849H74.2309V5.56885H66.1802V11.4849H60.9668V17.4407H66.1802V23.3567Z" fill="#33C18E"/>
</g>
<defs>
<clipPath id="clip0_631_121">
<rect width="241" height="35" fill="white"/>
</clipPath>
</defs>
</svg>
