<svg width="262" height="38" viewBox="0 0 262 38" fill="none" xmlns="http://www.w3.org/2000/svg">
<g clip-path="url(#clip0_600_1836)">
<path d="M27.957 12.5338V37.5905H19.6189V35.1333C17.9949 37.0409 15.5317 38 12.2509 38C9.98386 38 7.91297 37.472 6.06007 36.4266C4.20717 35.3812 2.72485 33.8832 1.63491 31.9433C0.54497 30.0034 0 27.751 0 25.2076C0 22.6643 0.54497 20.4226 1.63491 18.4935C2.72485 16.5644 4.19627 15.088 6.06007 14.0534C7.91297 13.0188 9.98386 12.5015 12.2509 12.5015C15.1938 12.5015 17.5154 13.3529 19.2048 15.0556V12.5446H27.957V12.5338ZM17.8641 29.5508C18.8451 28.5054 19.3356 27.0505 19.3356 25.1969C19.3356 23.3432 18.8451 21.953 17.8641 20.9184C16.8832 19.8838 15.6189 19.3665 14.0929 19.3665C12.567 19.3665 11.3027 19.8838 10.3217 20.9184C9.34079 21.953 8.85032 23.3755 8.85032 25.1969C8.85032 27.0182 9.34079 28.4947 10.3217 29.5508C11.3027 30.5962 12.567 31.1243 14.0929 31.1243C15.6189 31.1243 16.8832 30.5962 17.8641 29.5508Z" fill="white"/>
<path d="M36.4147 35.6507C34.7144 34.0881 33.8643 31.8464 33.8643 28.9366V4.18164H42.6165V28.484C42.6165 29.4 42.8563 30.0898 43.3249 30.5747C43.8045 31.0597 44.4694 31.3076 45.3304 31.3076C46.0389 31.3076 46.6929 31.1567 47.3141 30.8549L47.6847 37.3643C46.3659 37.7846 44.9926 38.0001 43.5865 38.0001C40.5129 38.0001 38.1259 37.2134 36.4256 35.6507" fill="white"/>
<path d="M54.5187 35.6507C52.8184 34.0881 51.9683 31.8464 51.9683 28.9366V4.18164H60.7205V28.484C60.7205 29.4 60.9603 30.0898 61.4289 30.5747C61.9085 31.0597 62.5734 31.3076 63.4344 31.3076C64.1429 31.3076 64.7969 31.1567 65.4181 30.8549L65.7887 37.3643C64.4699 37.7846 63.0966 38.0001 61.6905 38.0001C58.6169 38.0001 56.2299 37.2134 54.5296 35.6507" fill="white"/>
<path d="M85.3966 30.8548C84.7863 31.1566 84.1214 31.3075 83.413 31.3075C82.5519 31.3075 81.887 31.0704 81.4075 30.5746C80.9279 30.0897 80.699 29.3892 80.699 28.4839H71.9468V28.9365C71.9468 31.8463 72.7969 34.088 74.4972 35.6506C76.1975 37.2133 78.5845 38.0001 81.6581 38.0001C83.0751 38.0001 84.4375 37.7845 85.7563 37.3642L85.3857 30.8548H85.3966Z" fill="white"/>
<path d="M104.438 13.3421C105.866 12.7817 107.501 12.5015 109.343 12.5015V20.2825C108.547 20.1963 107.882 20.1424 107.359 20.1424C105.485 20.1424 104.024 20.6382 102.956 21.6404C101.899 22.6427 101.365 24.173 101.365 26.2422V37.5797H92.6123V12.5338H100.95V15.8639C101.844 14.7431 102.999 13.9025 104.427 13.3421" fill="white"/>
<path d="M140.428 12.5337V37.5905H132.09V34.9501C131.163 35.9523 130.063 36.7067 128.776 37.224C127.49 37.7413 126.117 38 124.678 38C121.452 38 118.88 37.0624 116.961 35.1764C115.043 33.2904 114.084 30.4668 114.084 26.7056V12.5337H122.836V25.2938C122.836 27.1475 123.185 28.4946 123.893 29.346C124.602 30.1974 125.626 30.6177 126.978 30.6177C128.33 30.6177 129.485 30.1435 130.368 29.1843C131.24 28.2252 131.676 26.7595 131.676 24.7873V12.5229H140.428V12.5337Z" fill="white"/>
<path d="M155.949 12.5337H147.196V37.5904H155.949V12.5337Z" fill="white"/>
<path d="M156.712 5.08678C156.712 7.8996 154.412 10.1736 151.567 10.1736C148.723 10.1736 146.423 7.8996 146.423 5.08678C146.423 2.27396 148.723 0 151.567 0C154.412 0 156.712 2.27396 156.712 5.08678Z" fill="white"/>
<path d="M165.66 37.2995C163.633 36.8253 162.009 36.211 160.777 35.4566L163.404 29.54C164.538 30.2405 165.889 30.7901 167.459 31.1997C169.028 31.6092 170.576 31.814 172.113 31.814C173.53 31.814 174.532 31.6739 175.132 31.3829C175.731 31.0919 176.026 30.6716 176.026 30.1327C176.026 29.5939 175.666 29.1951 174.947 28.9688C174.227 28.7425 173.083 28.5162 171.513 28.3114C169.519 28.0635 167.818 27.751 166.423 27.3523C165.028 26.9535 163.818 26.2314 162.805 25.1645C161.791 24.0976 161.29 22.6103 161.29 20.7028C161.29 19.1293 161.769 17.7175 162.717 16.489C163.666 15.2604 165.061 14.2904 166.881 13.5791C168.712 12.8679 170.892 12.5122 173.442 12.5122C175.252 12.5122 177.05 12.6954 178.827 13.0618C180.603 13.4283 182.097 13.9456 183.296 14.6137L180.669 20.4873C178.456 19.2694 176.058 18.6659 173.486 18.6659C172.102 18.6659 171.088 18.8276 170.445 19.1401C169.802 19.4634 169.475 19.873 169.475 20.3903C169.475 20.9722 169.824 21.371 170.532 21.5973C171.241 21.8236 172.407 22.0607 174.031 22.2978C176.091 22.5996 177.791 22.9552 179.143 23.3432C180.494 23.7419 181.672 24.464 182.663 25.5094C183.655 26.5547 184.157 28.0204 184.157 29.9064C184.157 31.4583 183.677 32.8486 182.729 34.0772C181.781 35.3057 180.374 36.2757 178.511 36.9654C176.658 37.6659 174.423 38.0108 171.808 38.0108C169.715 38.0108 167.666 37.7737 165.638 37.3103" fill="white"/>
<path d="M228.953 15.2281C230.784 17.0494 231.689 19.7976 231.689 23.4725V37.5905H222.937V24.8843C222.937 23.1492 222.61 21.8775 221.945 21.0585C221.28 20.2394 220.354 19.8299 219.155 19.8299C217.836 19.8299 216.779 20.2825 215.972 21.1986C215.176 22.1038 214.773 23.4941 214.773 25.337V37.5905H206.021V24.8843C206.021 21.5111 204.757 19.8299 202.25 19.8299C200.898 19.8299 199.819 20.2825 199.023 21.1986C198.228 22.1038 197.824 23.4941 197.824 25.337V37.5905H189.072V12.5338H197.41V15.5083C198.326 14.506 199.427 13.7516 200.702 13.2559C201.977 12.7601 203.361 12.5015 204.866 12.5015C206.62 12.5015 208.179 12.8248 209.563 13.4606C210.947 14.0965 212.07 15.0664 212.92 16.3704C213.901 15.1311 215.144 14.1719 216.648 13.5037C218.152 12.8356 219.798 12.5015 221.574 12.5015C224.648 12.5015 227.089 13.4067 228.921 15.2281" fill="white"/>
<path d="M249.313 12.5015C242.305 12.5015 236.626 18.1163 236.626 25.046C236.626 31.9757 242.305 37.5905 249.313 37.5905C256.321 37.5905 262 31.9757 262 25.046C262 18.1163 256.321 12.5015 249.313 12.5015ZM249.313 30.2405C246.414 30.2405 244.059 27.9127 244.059 25.046C244.059 22.1793 246.414 19.8514 249.313 19.8514C252.212 19.8514 254.566 22.1793 254.566 25.046C254.566 27.9127 252.212 30.2405 249.313 30.2405Z" fill="white"/>
<path d="M71.947 25.3584H80.6992V18.9353H86.3669V12.469H80.6992V6.0459H71.947V12.469H66.2793V18.9353H71.947V25.3584Z" fill="#33C18E"/>
</g>
<defs>
<clipPath id="clip0_600_1836">
<rect width="262" height="38" fill="white"/>
</clipPath>
</defs>
</svg>
