<svg width="132" height="48" viewBox="0 0 132 48" fill="none" xmlns="http://www.w3.org/2000/svg">
<g clip-path="url(#clip0_527_415)">
<path d="M63.2488 35.0922H66.0309V47.914H67.6318V35.0922H67.8221H69.4287H69.6358V47.914H71.2423V35.0922H74.0188V33.5747H63.2488V35.0922Z" fill="white"/>
<path d="M54.4882 45.2512L46.0636 33.5747H44.4011V47.9369H46.0021V36.2834L54.4322 47.9369H56.0724V33.5747H54.4882V45.2512Z" fill="white"/>
<path d="M109.139 45.2512L100.714 33.5747H99.0461V47.9369H100.653V36.2834L109.077 47.9369H110.723V33.5747H109.139V45.2512Z" fill="white"/>
<path d="M1.52258 35.997L6.62211 46.4194H7.58492L12.6956 35.997L12.718 47.9369H14.2014V33.5747H12.2366L7.12031 44.0028L1.98719 33.5747H0V47.9369H1.52258V35.997Z" fill="white"/>
<path d="M85.7517 33.5747H84.0836L77.7861 47.9369H79.4934L81.0552 44.2662H88.6961L90.2803 47.9369H92.0267L85.7461 33.5747H85.7517ZM81.7213 42.7487L84.8728 35.3614L88.0636 42.7487H81.7269H81.7213Z" fill="white"/>
<path d="M124.057 33.5747L117.759 47.9369H119.467L121.028 44.2662H128.669L130.253 47.9369H132L125.719 33.5747H124.057ZM121.689 42.7487L124.835 35.3614L128.026 42.7487H121.689Z" fill="white"/>
<path d="M21.96 40.7616C21.96 44.8045 25.2066 48.0057 29.321 48.0057C33.4353 48.0057 36.6596 44.8045 36.6596 40.7616C36.6596 36.7186 33.4129 33.5404 29.321 33.5347C25.2066 33.5347 21.96 36.7186 21.96 40.7616ZM35.0195 40.7616C35.0195 43.9398 32.4501 46.5053 29.321 46.5053C26.1918 46.5053 23.5833 43.9398 23.5833 40.7616C23.5833 37.5833 26.1918 35.0579 29.321 35.0579C32.4501 35.0579 35.0195 37.5833 35.0195 40.7616Z" fill="white"/>
<path d="M73.5542 7.1811C73.6494 7.12384 73.8397 7.07802 74.1252 7.04939V6.79742H69.6022V7.04939C69.8429 7.0723 70.0109 7.10666 70.1116 7.15247C70.1732 7.1811 70.2516 7.24409 70.1732 7.39871C70.1732 7.41016 70.1676 7.41589 70.162 7.42162L69.3111 9.19112V3.08661H71.7406C71.8469 3.08661 71.9253 3.1267 71.9813 3.20115C72.0372 3.27559 72.0764 3.43021 72.1044 3.665H72.3451V0H72.1044C72.0764 0.234789 72.0372 0.389406 71.9813 0.463851C71.9253 0.538296 71.8469 0.578382 71.7406 0.578382H59.8398C59.7334 0.578382 59.6551 0.538296 59.5991 0.463851C59.5431 0.389406 59.5095 0.234789 59.4815 0H59.2408V3.665H59.4815C59.5095 3.43021 59.5487 3.27559 59.5991 3.20115C59.6551 3.1267 59.7334 3.08661 59.8398 3.08661H62.202V9.16822L61.368 7.43307C61.368 7.43307 61.368 7.42162 61.3568 7.41016C61.284 7.25555 61.3568 7.19256 61.4184 7.16392C61.5247 7.11811 61.6926 7.08375 61.9277 7.06084V6.80888H57.4048V7.06084C57.6959 7.08948 57.8862 7.13529 57.9758 7.19256C58.0653 7.24982 58.1157 7.33572 58.1157 7.45025V8.30923V20.9878V21.4288C58.1101 21.5204 58.0821 21.6006 58.0093 21.6521C57.931 21.7094 57.7742 21.7495 57.5335 21.7781V21.9957H61.2672V21.7495C61.0265 21.7208 60.8698 21.6807 60.7914 21.6235C60.713 21.5719 60.6739 21.486 60.6739 21.3772V20.3808V11.5218L64.9001 20.4667H66.6019L66.613 20.4381L70.8337 11.5104V20.3694V21.3658C70.8337 21.4746 70.7945 21.5605 70.7162 21.612C70.6378 21.6693 70.4811 21.7094 70.2404 21.738V21.9843H70.2516H73.9741V21.7666C73.7333 21.738 73.5766 21.6979 73.4982 21.6407C73.4311 21.5891 73.4031 21.5089 73.3919 21.4173V20.9764V8.29205V7.43307C73.3919 7.31854 73.4423 7.23264 73.5318 7.17538L73.5542 7.1811ZM66.5571 15.1582L65.8182 16.7101L64.9729 15.1582V3.08089H66.5571V15.1582Z" fill="white"/>
</g>
<defs>
<clipPath id="clip0_527_415">
<rect width="132" height="48" fill="white"/>
</clipPath>
</defs>
</svg>
