<svg width="131" height="35" viewBox="0 0 131 35" fill="none" xmlns="http://www.w3.org/2000/svg">
<path d="M2.23071 22.3559L115.426 26.0648L123.662 15.7942L123.146 0H14.5757L5.42846 10.3161L2.23071 22.3559Z" fill="white"/>
<path d="M33.301 10.3161H35.2212L34.2611 7.33643L33.301 10.3161Z" fill="#EB1053"/>
<path d="M102.593 6.13159H97.8967V8.98243H102.593C103.714 8.98243 104.273 8.50698 104.273 7.55796C104.273 6.60894 103.714 6.13349 102.593 6.13349V6.13159Z" fill="#EB1053"/>
<path d="M130.708 13.3544L126.864 2.62164C126.3 1.04941 124.813 0 123.146 0H12.8842C12.4892 0 12.1018 0.0492504 11.7257 0.142069C10.8242 0.367484 9.99832 0.850517 9.35575 1.54571L1.06655 10.5263C0.138594 11.5322 -0.214821 12.9415 0.129145 14.2656L2.23074 22.3559C2.707 24.1914 4.32099 25.5041 6.21092 25.5932L12.1453 25.8754L16.6112 34.2177C17.1592 35.2425 18.6164 35.2652 19.1966 34.2593L23.7154 26.4266L118.157 30.9141C119.767 30.9899 121.305 30.2435 122.241 28.9289L130.071 17.9423C131.02 16.6107 131.258 14.8964 130.706 13.3563L130.708 13.3544ZM23.2939 12.2577H17.747V15.7923H13.3699V2.85652H23.292C24.8909 2.85652 26.159 3.2581 27.0965 4.05937C28.032 4.86064 28.4988 6.02749 28.4988 7.55804C28.4988 9.0886 28.032 10.2536 27.0965 11.0567C26.1609 11.8599 24.8928 12.2596 23.292 12.2596L23.2939 12.2577ZM37.0129 15.7942L36.1813 13.5363H32.341L31.5094 15.7942H27.0227L32.1936 2.85842H36.3306L41.5014 15.7942H37.0148H37.0129ZM53.9447 15.7942H50.0855L46.2451 9.76105V15.7942H42.0533V2.85652H45.9125L49.7528 8.87076V2.85652H53.9447V15.7923V15.7942ZM66.3161 6.53894H63.0107V15.7923H58.6336V6.53894H55.3281V2.85652H66.3142V6.53894H66.3161ZM80.3356 15.7942H75.9585V11.2594H72.0747V15.7942H67.6977V2.85652H72.0747V7.18677H75.9585V2.85652H80.3356V15.7923V15.7942ZM91.9321 6.53894H86.7443V7.66791H90.4183V10.9809H86.7443V12.1099H91.9321V15.7923H82.3672V2.85652H91.9321V6.53894ZM108.558 15.7942H104.145L102.446 12.2596H97.8967V15.7942H93.5953V2.85652H103.517C105.116 2.85652 106.384 3.2581 107.322 4.05937C108.257 4.86064 108.724 6.02749 108.724 7.55804C108.724 8.52032 108.533 9.33864 108.151 10.0111C107.77 10.6836 107.229 11.212 106.526 11.5928L108.558 15.7942ZM119.175 15.7942L118.344 13.5363H114.503L113.672 15.7942H109.185L114.356 2.85842H118.493L123.664 15.7942H119.177H119.175Z" fill="#EB1053"/>
<path d="M115.463 10.3161H117.384L116.423 7.33643L115.463 10.3161Z" fill="#EB1053"/>
<path d="M22.4074 6.13159H17.7468V8.98243H22.4074C23.5262 8.98243 24.0875 8.50698 24.0875 7.55796C24.0875 6.60894 23.5262 6.13349 22.4074 6.13349V6.13159Z" fill="#EB1053"/>
</svg>
