<svg width="30" height="30" viewBox="0 0 30 30" fill="none" xmlns="http://www.w3.org/2000/svg">
<g clip-path="url(#clip0_527_451)">
<path d="M5.3125 0H24.6875C27.625 0 30 2.4359 30 5.44872V24.5513C30 27.5641 27.625 30 24.6875 30H5.3125C2.375 30 0 27.5641 0 24.5513V5.44872C0 2.4359 2.375 0 5.3125 0Z" fill="#330000"/>
<path d="M14.933 18.998H10.5092L9.60544 21.8636C9.58166 21.9734 9.48653 22.0466 9.3795 22.0344H7.14384C7.01303 22.0344 6.97735 21.9612 7.01303 21.8149L10.8422 10.5108C10.8779 10.3889 10.9135 10.2547 10.9611 10.1084C11.0087 9.85233 11.0325 9.58405 11.0325 9.31578C11.0206 9.25481 11.0681 9.19384 11.1276 9.18164H14.2076C14.3027 9.18164 14.3503 9.21823 14.3622 9.2792L18.7027 21.8393C18.7384 21.9734 18.7027 22.0344 18.5838 22.0344H16.0984C16.0151 22.0466 15.9319 21.9856 15.9081 21.9002L14.933 18.998ZM11.1989 16.5226H14.2195C14.1481 16.2665 14.053 15.9616 13.946 15.6446C13.8389 15.3153 13.7319 14.9617 13.6249 14.5959C13.506 14.2179 13.3989 13.852 13.28 13.474C13.1611 13.096 13.0541 12.7424 12.9589 12.3887C12.8638 12.0473 12.7806 11.7302 12.6973 11.4376H12.6735C12.5665 11.9619 12.4357 12.4863 12.2692 13.0106C12.0908 13.596 11.9125 14.2057 11.7222 14.8154C11.5557 15.4373 11.3773 16.0104 11.1989 16.5226ZM21.3546 11.3156C20.9621 11.3278 20.5816 11.1693 20.2962 10.8888C20.0227 10.584 19.88 10.1816 19.8919 9.76697C19.88 9.35236 20.0346 8.96215 20.32 8.68168C20.6054 8.40121 20.9859 8.25488 21.3783 8.25488C21.8421 8.25488 22.1989 8.40121 22.4605 8.68168C22.7221 8.97434 22.8648 9.36456 22.8529 9.76697C22.8648 10.1816 22.7221 10.584 22.4367 10.8888C22.1632 11.1815 21.7589 11.34 21.3546 11.3156ZM20.0227 21.9002V12.5107C20.0227 12.3887 20.0702 12.3399 20.1773 12.3399H22.5318C22.6389 12.3399 22.6864 12.4009 22.6864 12.5107V21.9002C22.6864 22.0344 22.6389 22.0953 22.5318 22.0953H20.201C20.0821 22.0953 20.0227 22.0222 20.0227 21.9002Z" fill="#FF9A00"/>
</g>
<defs>
<clipPath id="clip0_527_451">
<rect width="30" height="30" fill="white"/>
</clipPath>
</defs>
</svg>
