<svg width="20" height="20" viewBox="0 0 20 20" fill="none" xmlns="http://www.w3.org/2000/svg">
<path fill-rule="evenodd" clip-rule="evenodd" d="M12.6266 5.15447H16.9811V6.45348H12.6266V5.15447ZM10.4239 11.9771C10.4239 15.1964 7.06907 15.0947 7.06907 15.0947H1.57935V4.5332H7.06907C8.74084 4.5332 10.0568 5.4538 10.0568 7.34584C10.0568 9.23787 8.44715 9.35648 8.44715 9.35648C10.5707 9.35648 10.4239 11.9771 10.4239 11.9771ZM18.5681 11.802H13.0953C13.0953 13.7618 14.9535 13.6376 14.9535 13.6376C16.71 13.6376 16.6479 12.5023 16.6479 12.5023H18.506C18.506 15.5183 14.8914 15.3093 14.8914 15.3093C10.5595 15.3093 10.8362 11.2711 10.8362 11.2711C10.8362 11.2711 10.8305 7.21594 14.8914 7.21594C19.1668 7.22159 18.5681 11.802 18.5681 11.802ZM14.9365 8.76909C13.3043 8.76909 13.0784 10.3957 13.0784 10.3957H16.5462C16.5462 10.3957 16.5688 8.76909 14.9365 8.76909ZM7.06905 10.3957H3.99661V13.2196H6.91656C7.35709 13.2083 8.18168 13.0841 8.18168 11.8472C8.18168 10.3787 7.06905 10.3957 7.06905 10.3957ZM7.06908 6.41393C7.06908 6.41393 7.8146 6.41393 7.8146 7.50962C7.8146 8.60531 7.37406 8.76909 6.87705 8.76909H3.99664V6.41393H7.06908Z" fill="white"/>
</svg>
