<svg width="24" height="24" viewBox="0 0 24 24" fill="none" xmlns="http://www.w3.org/2000/svg">
<path fill-rule="evenodd" clip-rule="evenodd" d="M11.5085 13.519L16.56 18.5648C16.8281 18.8325 17.1916 18.9829 17.5707 18.9829C17.9498 18.9829 18.3133 18.8325 18.5814 18.5648C18.8494 18.297 19 17.9339 19 17.5552C19 17.1766 18.8494 16.8135 18.5814 16.5457L13.528 11.5L18.5804 6.45429C18.7131 6.32171 18.8183 6.16434 18.8901 5.99115C18.9618 5.81796 18.9988 5.63235 18.9987 5.4449C18.9987 5.25746 18.9617 5.07186 18.8898 4.89871C18.818 4.72555 18.7127 4.56823 18.5799 4.43572C18.4472 4.30321 18.2897 4.19811 18.1163 4.12642C17.9429 4.05473 17.7571 4.01785 17.5694 4.01789C17.3817 4.01794 17.1959 4.0549 17.0226 4.12667C16.8492 4.19845 16.6917 4.30362 16.5591 4.43619L11.5085 9.4819L6.45707 4.43619C6.32533 4.29982 6.16771 4.19102 5.99342 4.11614C5.81913 4.04125 5.63166 4.0018 5.44194 4.00006C5.25222 3.99832 5.06405 4.03435 4.88842 4.10603C4.71278 4.17771 4.5532 4.28361 4.41898 4.41755C4.28476 4.55149 4.17858 4.71079 4.10666 4.88616C4.03473 5.06152 3.99849 5.24944 4.00005 5.43895C4.00161 5.62845 4.04093 5.81575 4.11574 5.98991C4.19054 6.16408 4.29931 6.32161 4.43572 6.45334L9.4891 11.5L4.43667 16.5467C4.30027 16.6784 4.19149 16.8359 4.11669 17.0101C4.04189 17.1842 4.00256 17.3715 4.001 17.5611C3.99944 17.7506 4.03568 17.9385 4.10761 18.1138C4.17954 18.2892 4.28571 18.4485 4.41993 18.5825C4.55415 18.7164 4.71374 18.8223 4.88937 18.894C5.065 18.9657 5.25317 19.0017 5.44289 18.9999C5.63261 18.9982 5.82009 18.9587 5.99438 18.8839C6.16867 18.809 6.32628 18.7002 6.45802 18.5638L11.5085 13.519Z" fill="white"/>
</svg>
