<svg width="30" height="30" viewBox="0 0 30 30" fill="none" xmlns="http://www.w3.org/2000/svg">
<path d="M5.31349 0H24.6865C27.6019 0 30 2.41158 30 5.45016V24.5498C30 27.5402 27.6489 30 24.6865 30H5.31349C2.39813 30 0 27.5884 0 24.5498V5.45016C0 2.45981 2.3511 0 5.31349 0Z" fill="black"/>
<path d="M11.9085 24.6619C13.6116 24.6619 14.9933 23.248 14.9933 21.5128V18.3638H11.9085C10.2055 18.3638 8.82373 19.7776 8.82373 21.5128C8.82373 23.248 10.2055 24.6619 11.9085 24.6619Z" fill="#4CB37D"/>
<path d="M8.82373 15.2147C8.82373 13.4795 10.2055 12.0657 11.9085 12.0657H14.9933V18.3638H11.9085C10.2055 18.3638 8.82373 16.9499 8.82373 15.2147Z" fill="#765EA5"/>
<path d="M8.82373 8.91664C8.82373 7.18144 10.2055 5.76758 11.9085 5.76758H14.9933V12.0657H11.9085C10.2055 12.0657 8.82373 10.6518 8.82373 8.91664Z" fill="#E94F25"/>
<path d="M15.0254 5.73535H18.1102C19.8132 5.73535 21.195 7.14921 21.195 8.88441C21.195 10.6196 19.8132 12.0335 18.1102 12.0335H15.0254V5.73535Z" fill="#EE7164"/>
<path d="M21.195 15.2147C21.195 16.9499 19.8132 18.3638 18.1102 18.3638C16.4071 18.3638 15.0254 16.9499 15.0254 15.2147C15.0254 13.4795 16.4071 12.0657 18.1102 12.0657C19.8132 12.0657 21.195 13.4795 21.195 15.2147Z" fill="#44B7EA"/>
</svg>
