<svg width="30" height="30" viewBox="0 0 30 30" fill="none" xmlns="http://www.w3.org/2000/svg">
<path d="M25.5883 3.08838L23.6591 24.9241L14.9872 27.3531L6.33909 24.9275L4.41187 3.08838H25.5883Z" fill="#E44D26"/>
<path d="M14.9998 25.5883L22.1428 23.6148L23.8233 4.85303H14.9998V25.5883Z" fill="#F16529"/>
<path d="M11.2665 10.1489H15V7.5H8.38232L8.44546 8.21063L9.09414 15.5102H15V12.8613H11.5077L11.2665 10.1489ZM11.8613 16.8347H9.21206L9.58177 20.9938L14.9878 22.5L15 22.4967V19.7407L14.9884 19.7438L12.0492 18.9473L11.8613 16.8347Z" fill="#EBEBEB"/>
<path d="M14.9998 15.5109H18.2529L17.9462 18.9465L14.9998 19.744V22.5L20.4155 20.9949L20.4552 20.5473L21.0761 13.5731L21.1405 12.8618H14.9998V15.5109ZM14.9998 10.1426V10.1491H21.3809L21.4339 9.55369L21.5543 8.21069L21.6174 7.5H14.9998V10.1426Z" fill="white"/>
</svg>
