<svg width="80" height="80" viewBox="0 0 80 80" fill="none" xmlns="http://www.w3.org/2000/svg">
<path d="M56.7828 48.1067L48.6486 40.0311L56.7828 31.834H59.2443L69.4783 21.6216C70.6439 23.4898 71.6362 25.4756 72.4324 27.5572L60.0192 39.8808L72.4324 52.2037C71.6025 54.3748 70.5584 56.4408 69.3277 58.3783L58.9807 48.1059H56.7836L56.7828 48.1067Z" fill="white"/>
<path d="M31.7967 59.3329V56.8508L40.029 48.6484L48.1393 56.8508V59.0664L58.3784 69.4218C56.4811 70.6122 54.4625 71.6231 52.3461 72.4322L39.9828 59.9285L27.6399 72.4117C25.5282 71.6001 23.5143 70.5877 21.6217 69.3965L31.7967 59.3337V59.3329Z" fill="white"/>
<path d="M58.3372 10.6585L48.0207 21.0467V23.2381L39.9635 31.3512L31.7852 23.2381V20.783L21.7133 10.6413L21.6217 10.5787C23.5159 9.38794 25.5329 8.37634 27.6486 7.56738L39.9604 19.9647L52.2621 7.57599C54.412 8.39982 56.4585 9.43253 58.3784 10.6499L58.3365 10.6577L58.3372 10.6585Z" fill="white"/>
<path d="M19.9458 39.8668L7.57067 27.5634C8.36561 25.4798 9.35712 23.4919 10.5209 21.6216L20.772 31.8133H23.2297L31.3513 40.0093L23.2297 48.0839H21.036L10.6815 58.3783C9.44562 56.4317 8.39928 54.3551 7.56754 52.1733L19.9466 39.866L19.9458 39.8668Z" fill="white"/>
</svg>
