<svg width="47" height="47" viewBox="0 0 47 47" fill="none" xmlns="http://www.w3.org/2000/svg">
<path d="M44.0625 45.5312H4.40625C3.62718 45.5312 2.88001 45.2218 2.32912 44.6709C1.77824 44.12 1.46875 43.3728 1.46875 42.5938V2.9375C1.46875 2.54796 1.62349 2.17438 1.89894 1.89894C2.17438 1.62349 2.54796 1.46875 2.9375 1.46875C3.32704 1.46875 3.70062 1.62349 3.97606 1.89894C4.25151 2.17438 4.40625 2.54796 4.40625 2.9375V42.5938H44.0625C44.452 42.5938 44.8256 42.7485 45.1011 43.0239C45.3765 43.2994 45.5312 43.673 45.5312 44.0625C45.5312 44.452 45.3765 44.8256 45.1011 45.1011C44.8256 45.3765 44.452 45.5312 44.0625 45.5312Z" fill="#8260FF"/>
<path d="M14.3203 39.6562H10.6484C9.77198 39.6562 8.93142 39.3081 8.31167 38.6883C7.69192 38.0686 7.34375 37.228 7.34375 36.3516V22.3984C7.34375 21.522 7.69192 20.6814 8.31167 20.0617C8.93142 19.4419 9.77198 19.0938 10.6484 19.0938H14.3203C15.1968 19.0938 16.0373 19.4419 16.6571 20.0617C17.2768 20.6814 17.625 21.522 17.625 22.3984V36.3516C17.625 37.228 17.2768 38.0686 16.6571 38.6883C16.0373 39.3081 15.1968 39.6562 14.3203 39.6562ZM27.5391 39.6562H23.8672C22.9907 39.6562 22.1502 39.3081 21.5304 38.6883C20.9107 38.0686 20.5625 37.228 20.5625 36.3516V17.9922C20.5625 17.1157 20.9107 16.2752 21.5304 15.6554C22.1502 15.0357 22.9907 14.6875 23.8672 14.6875H27.5391C28.4155 14.6875 29.2561 15.0357 29.8758 15.6554C30.4956 16.2752 30.8438 17.1157 30.8438 17.9922V36.3516C30.8438 37.228 30.4956 38.0686 29.8758 38.6883C29.2561 39.3081 28.4155 39.6562 27.5391 39.6562ZM40.7248 39.6562H37.0529C36.1764 39.6562 35.3359 39.3081 34.7161 38.6883C34.0964 38.0686 33.7482 37.228 33.7482 36.3516V12.1172C33.7482 11.2407 34.0964 10.4002 34.7161 9.78042C35.3359 9.16067 36.1764 8.8125 37.0529 8.8125H40.7248C41.6012 8.8125 42.4418 9.16067 43.0615 9.78042C43.6813 10.4002 44.0295 11.2407 44.0295 12.1172V36.3516C44.0295 37.228 43.6813 38.0686 43.0615 38.6883C42.4418 39.3081 41.6012 39.6562 40.7248 39.6562Z" fill="#8260FF"/>
</svg>
