<svg width="24" height="24" viewBox="0 0 24 24" fill="none" xmlns="http://www.w3.org/2000/svg">
<path d="M5.41586 4H17.5841C17.9596 4 18.3198 4.17186 18.5853 4.47776C18.8508 4.78367 19 5.19857 19 5.63118C19 6.0638 18.8508 6.4787 18.5853 6.7846C18.3198 7.09051 17.9596 7.26236 17.5841 7.26236H5.41586C5.04035 7.26236 4.68022 7.09051 4.4147 6.7846C4.14917 6.4787 4 6.0638 4 5.63118C4 5.19857 4.14917 4.78367 4.4147 4.47776C4.68022 4.17186 5.04035 4 5.41586 4ZM5.41586 9.86851H17.5841C17.7701 9.86851 17.9542 9.9107 18.126 9.99267C18.2977 10.0746 18.4538 10.1948 18.5853 10.3463C18.7168 10.4977 18.8211 10.6776 18.8922 10.8755C18.9634 11.0734 19 11.2855 19 11.4997C19 11.7139 18.9634 11.926 18.8922 12.1239C18.8211 12.3218 18.7168 12.5016 18.5853 12.6531C18.4538 12.8046 18.2977 12.9247 18.126 13.0067C17.9542 13.0887 17.7701 13.1309 17.5841 13.1309H5.41586C5.22993 13.1309 5.04582 13.0887 4.87404 13.0067C4.70225 12.9247 4.54617 12.8046 4.4147 12.6531C4.28322 12.5016 4.17893 12.3218 4.10778 12.1239C4.03662 11.926 4 11.7139 4 11.4997C4 11.2855 4.03662 11.0734 4.10778 10.8755C4.17893 10.6776 4.28322 10.4977 4.4147 10.3463C4.54617 10.1948 4.70225 10.0746 4.87404 9.99267C5.04582 9.9107 5.22993 9.86851 5.41586 9.86851ZM5.41586 15.7376H17.5841C17.7701 15.7376 17.9542 15.7798 18.126 15.8618C18.2977 15.9438 18.4538 16.0639 18.5853 16.2154C18.7168 16.3669 18.8211 16.5467 18.8922 16.7446C18.9634 16.9425 19 17.1546 19 17.3688C19 17.583 18.9634 17.7951 18.8922 17.993C18.8211 18.1909 18.7168 18.3708 18.5853 18.5222C18.4538 18.6737 18.2977 18.7939 18.126 18.8758C17.9542 18.9578 17.7701 19 17.5841 19H5.41586C5.22993 19 5.04582 18.9578 4.87404 18.8758C4.70225 18.7939 4.54617 18.6737 4.4147 18.5222C4.28322 18.3708 4.17893 18.1909 4.10778 17.993C4.03662 17.7951 4 17.583 4 17.3688C4 17.1546 4.03662 16.9425 4.10778 16.7446C4.17893 16.5467 4.28322 16.3669 4.4147 16.2154C4.54617 16.0639 4.70225 15.9438 4.87404 15.8618C5.04582 15.7798 5.22993 15.7376 5.41586 15.7376Z" fill="white"/>
</svg>
