<svg width="30" height="30" viewBox="0 0 30 30" fill="none" xmlns="http://www.w3.org/2000/svg">
<path d="M5.31279 0H24.6872C27.6223 0 30 2.4385 30 5.44863V24.5514C30 27.5615 27.6223 30 24.6872 30H5.31279C2.3777 30 0 27.5615 0 24.5514V5.44863C0 2.4385 2.3777 0 5.31279 0Z" fill="#001E36"/>
<path d="M6.9248 21.0347V7.8437C6.9248 7.75687 6.96098 7.70622 7.05505 7.70622C7.27213 7.70622 7.47473 7.70622 7.7714 7.69174C8.08255 7.67727 8.40093 7.67727 8.74825 7.6628C9.09557 7.64833 9.4646 7.64833 9.86258 7.63386C10.2606 7.61938 10.6441 7.61938 11.0276 7.61938C12.0768 7.61938 12.9523 7.74963 13.6687 8.01736C14.3126 8.23444 14.8988 8.59623 15.3836 9.06656C15.796 9.47901 16.1144 9.97828 16.317 10.5282C16.5124 11.0637 16.6137 11.6208 16.6137 12.1925C16.6137 13.2923 16.3604 14.204 15.8467 14.9204C15.3329 15.6368 14.6166 16.1794 13.7844 16.4833C12.9161 16.8017 11.9537 16.9175 10.8973 16.9175C10.5862 16.9175 10.3836 16.9175 10.2533 16.903C10.1231 16.8886 9.94217 16.8886 9.70339 16.8886V21.0058C9.71786 21.0926 9.65274 21.1722 9.56591 21.1867C9.55143 21.1867 9.53696 21.1867 9.51525 21.1867H7.07676C6.97546 21.2011 6.9248 21.1505 6.9248 21.0347ZM9.71786 10.1809V14.4862C9.89876 14.5007 10.0652 14.5152 10.2171 14.5152H10.8973C11.3966 14.5152 11.8959 14.4356 12.3734 14.2836C12.7859 14.1679 13.1404 13.9218 13.4226 13.6035C13.6904 13.2851 13.8206 12.8437 13.8206 12.2865C13.8351 11.8886 13.7338 11.4906 13.5239 11.1433C13.3069 10.8104 12.9957 10.5572 12.6267 10.4124C12.1491 10.2171 11.6426 10.1447 11.1144 10.1592C10.7815 10.1592 10.4849 10.1592 10.2461 10.1737C9.98559 10.1519 9.80469 10.1664 9.71786 10.1809Z" fill="#31A8FF"/>
<path d="M24.6164 13.7048C24.2329 13.5022 23.8204 13.3575 23.3863 13.2707C22.9087 13.1694 22.4384 13.1042 21.9535 13.1042C21.7003 13.0898 21.4253 13.1332 21.1865 13.1911C21.0201 13.2272 20.8754 13.3213 20.7886 13.4443C20.7234 13.5456 20.6873 13.6759 20.6873 13.7916C20.6873 13.9074 20.7379 14.0232 20.8175 14.1245C20.9333 14.262 21.0852 14.3778 21.2517 14.4718C21.5483 14.6238 21.8522 14.7685 22.1634 14.8915C22.858 15.123 23.5237 15.4414 24.1388 15.8249C24.5585 16.0927 24.9058 16.4545 25.1518 16.8886C25.3544 17.3011 25.463 17.7497 25.4485 18.2055C25.463 18.8061 25.2821 19.4139 24.9492 19.9132C24.5874 20.427 24.0881 20.8249 23.5165 21.0565C22.887 21.3242 22.12 21.4689 21.1938 21.4689C20.6077 21.4689 20.0288 21.4183 19.4499 21.3025C19.0013 21.2229 18.5527 21.0854 18.1402 20.8901C18.0534 20.8394 17.9883 20.7526 18.0028 20.644V18.4154C18.0028 18.3792 18.0172 18.3285 18.0534 18.2996C18.0896 18.2707 18.133 18.2851 18.1692 18.3141C18.6685 18.6107 19.1967 18.8134 19.7611 18.9436C20.2459 19.0738 20.7596 19.139 21.2734 19.139C21.7582 19.139 22.1055 19.0738 22.337 18.9581C22.5397 18.8712 22.6844 18.6469 22.6844 18.4226C22.6844 18.2417 22.5831 18.0753 22.3732 17.9089C22.1706 17.7424 21.7437 17.5471 21.1142 17.3083C20.463 17.0767 19.8551 16.7728 19.2907 16.3821C18.8928 16.0999 18.5599 15.7309 18.3139 15.2895C18.1113 14.877 18.0028 14.4284 18.0172 13.9798C18.0172 13.4299 18.1692 12.9016 18.4514 12.4313C18.7698 11.9175 19.2473 11.5051 19.7973 11.2518C20.3978 10.9407 21.1576 10.8032 22.0693 10.8032C22.5975 10.8032 23.133 10.8394 23.6612 10.919C24.0447 10.9696 24.421 11.071 24.7611 11.2157C24.8117 11.2301 24.8624 11.2808 24.8913 11.3314C24.9058 11.3821 24.9203 11.4327 24.9203 11.4834V13.5746C24.9203 13.6252 24.8913 13.6759 24.8551 13.7048C24.7321 13.7338 24.667 13.7338 24.6164 13.7048Z" fill="#31A8FF"/>
</svg>
