<svg width="47" height="47" viewBox="0 0 47 47" fill="none" xmlns="http://www.w3.org/2000/svg">
<path d="M26.4375 42.5938H20.5625C20.173 42.5938 19.7994 42.7485 19.524 43.024C19.2485 43.2994 19.0938 43.673 19.0938 44.0625C19.0938 44.4521 19.2485 44.8257 19.524 45.1011C19.7994 45.3766 20.173 45.5313 20.5625 45.5313H26.4375C26.8271 45.5313 27.2007 45.3766 27.4761 45.1011C27.7516 44.8257 27.9063 44.4521 27.9063 44.0625C27.9063 43.673 27.7516 43.2994 27.4761 43.024C27.2007 42.7485 26.8271 42.5938 26.4375 42.5938ZM27.9063 38.1875H19.0938C18.7043 38.1875 18.3307 38.3423 18.0552 38.6177C17.7798 38.8932 17.625 39.2668 17.625 39.6563C17.625 40.0458 17.7798 40.4194 18.0552 40.6949C18.3307 40.9703 18.7043 41.125 19.0938 41.125H27.9063C28.2958 41.125 28.6694 40.9703 28.9449 40.6949C29.2203 40.4194 29.375 40.0458 29.375 39.6563C29.375 39.2668 29.2203 38.8932 28.9449 38.6177C28.6694 38.3423 28.2958 38.1875 27.9063 38.1875ZM33.9116 5.75479C31.1513 2.99078 27.4537 1.46879 23.5 1.46879C21.57 1.46419 19.658 1.84095 17.8739 2.57744C16.0899 3.31393 14.4689 4.39563 13.1042 5.7604C11.7394 7.12518 10.6577 8.74614 9.92119 10.5302C9.1847 12.3142 8.80794 14.2262 8.81254 16.1563C8.81254 20.4359 10.453 24.4391 13.3106 27.1389L13.7108 27.5143C15.3641 29.0602 17.625 31.1779 17.625 33.0469V35.25C17.625 35.6396 17.7798 36.0132 18.0552 36.2886C18.3307 36.5641 18.7043 36.7188 19.0938 36.7188H21.2969C21.4917 36.7188 21.6785 36.6414 21.8162 36.5037C21.9539 36.366 22.0313 36.1792 22.0313 35.9844V25.2277C22.0313 25.0791 21.9864 24.9341 21.9023 24.8117C21.8182 24.6893 21.699 24.5952 21.5604 24.5419C20.7123 24.1959 19.9065 23.754 19.159 23.2247C18.991 23.1174 18.8466 22.977 18.7346 22.8121C18.6225 22.6473 18.5453 22.4613 18.5074 22.2656C18.4696 22.0699 18.472 21.8686 18.5144 21.6738C18.5569 21.4791 18.6386 21.295 18.7545 21.1328C18.8704 20.9706 19.0181 20.8338 19.1885 20.7305C19.359 20.6272 19.5488 20.5597 19.7462 20.5322C19.9436 20.5046 20.1445 20.5174 20.3368 20.57C20.5291 20.6226 20.7086 20.7137 20.8646 20.8379C21.5439 21.3189 22.852 22.0313 23.5 22.0313C24.1481 22.0313 25.4562 21.3171 26.1374 20.8379C26.4545 20.6385 26.8359 20.5679 27.2034 20.6404C27.5709 20.7129 27.8969 20.9231 28.1145 21.228C28.3322 21.5329 28.4251 21.9095 28.3743 22.2806C28.3234 22.6518 28.1327 22.9895 27.8411 23.2247C27.0934 23.753 26.2877 24.194 25.4397 24.5392C25.3011 24.5925 25.1819 24.6865 25.0978 24.8089C25.0137 24.9314 24.9687 25.0764 24.9688 25.2249V35.9844C24.9688 36.1792 25.0462 36.366 25.1839 36.5037C25.3216 36.6414 25.5084 36.7188 25.7032 36.7188H27.9063C28.2958 36.7188 28.6694 36.5641 28.9449 36.2886C29.2203 36.0132 29.375 35.6396 29.375 35.25V33.0469C29.375 31.222 31.6112 29.1061 33.2443 27.5602L33.695 27.1324C36.6343 24.3262 38.1875 20.5267 38.1875 16.1563C38.1973 14.226 37.8244 12.313 37.0905 10.5276C36.3566 8.74232 35.2761 7.12013 33.9116 5.75479Z" fill="#8260FF"/>
</svg>
