<svg width="30" height="30" viewBox="0 0 30 30" fill="none" xmlns="http://www.w3.org/2000/svg">
<path d="M26.3513 11.3825C26.3504 10.5723 26.0255 9.79544 25.4479 9.22249C24.8702 8.64955 24.0871 8.32728 23.2702 8.3264H20.9594V7.56236C20.9587 6.95465 20.7151 6.37202 20.2819 5.9423C19.8486 5.51259 19.2612 5.2709 18.6486 5.27026H10.9459C10.3332 5.2709 9.7458 5.51259 9.31258 5.9423C8.87936 6.37202 8.63569 6.95465 8.63506 7.56236V8.3264H6.32425C5.50737 8.32728 4.7242 8.64955 4.14658 9.22249C3.56896 9.79544 3.24406 10.5723 3.24316 11.3825V13.6746H26.3513V11.3825ZM19.4188 8.3264H10.1756V7.56236C10.1756 7.35973 10.2568 7.16539 10.4012 7.02211C10.5457 6.87883 10.7416 6.79833 10.9459 6.79833H18.6486C18.8529 6.79833 19.0488 6.87883 19.1932 7.02211C19.3377 7.16539 19.4188 7.35973 19.4188 7.56236V8.3264ZM18.6486 15.5847C18.6486 15.8887 18.5268 16.1802 18.3102 16.3951C18.0935 16.61 17.7996 16.7308 17.4932 16.7308H12.1013C11.7948 16.7308 11.501 16.61 11.2843 16.3951C11.0676 16.1802 10.9459 15.8887 10.9459 15.5847V15.3937C10.9459 15.343 10.9256 15.2945 10.8895 15.2586C10.8534 15.2228 10.8044 15.2027 10.7533 15.2027H3.24316V22.079C3.24316 22.8895 3.56778 23.6669 4.14559 24.24C4.72341 24.8131 5.50709 25.1351 6.32425 25.1351H23.2702C24.0873 25.1351 24.871 24.8131 25.4488 24.24C26.0267 23.6669 26.3513 22.8895 26.3513 22.079V15.2027H18.8411C18.7901 15.2027 18.7411 15.2228 18.705 15.2586C18.6689 15.2945 18.6486 15.343 18.6486 15.3937V15.5847Z" fill="white"/>
</svg>
