<svg width="30" height="30" viewBox="0 0 30 30" fill="none" xmlns="http://www.w3.org/2000/svg">
<path d="M5.31349 0H24.6865C27.6019 0 30 2.41158 30 5.45016V24.5498C30 27.5402 27.6489 30 24.6865 30H5.31349C2.39813 30 0 27.5884 0 24.5498V5.45016C0 2.45981 2.3511 0 5.31349 0Z" fill="#431238"/>
<path d="M15.7523 7.90996L11.9906 14.2765L15.9875 21.0289C16.0345 21.0772 16.0345 21.1254 16.0345 21.1736C16.0345 21.2219 15.9875 21.1736 15.8934 21.2219H13.0251C12.837 21.2219 12.6959 21.2219 12.6019 21.0772C12.3198 20.5466 12.0846 20.0161 11.8025 19.4855C11.5204 18.955 11.2382 18.4244 10.9561 17.8939C10.674 17.3633 10.3448 16.7846 10.0627 16.2058H10.0157C9.73355 16.7363 9.45141 17.3151 9.16928 17.8457C8.88714 18.3762 8.60502 18.955 8.32289 19.4855C8.04075 20.0161 7.75861 20.5949 7.47648 21.0772C7.42946 21.2219 7.33543 21.2219 7.19436 21.2219H4.46708C4.42006 21.2219 4.37305 21.2701 4.37305 21.1736C4.37305 21.1254 4.37304 21.0772 4.42006 21.0289L8.32289 14.4695L4.51411 7.90996C4.46708 7.86173 4.46708 7.81351 4.46708 7.76528C4.5141 7.71704 4.56113 7.71704 4.60816 7.71704H7.42947C7.47649 7.71704 7.57054 7.71704 7.61756 7.76528C7.66458 7.81351 7.7116 7.81351 7.75862 7.86174C7.99373 8.39229 8.27586 8.97107 8.558 9.50161C8.84013 10.0322 9.12226 10.6109 9.45141 11.1415C9.73354 11.672 10.0157 12.2026 10.2978 12.7813H10.3448C10.627 12.2026 10.8621 11.672 11.1442 11.1415C11.4263 10.6109 11.7085 10.0804 11.9906 9.54985C12.2727 9.0193 12.5549 8.44051 12.837 7.9582C12.837 7.90997 12.884 7.86174 12.931 7.81351C12.9781 7.76528 13.0251 7.76528 13.0721 7.76528H15.7053C15.7523 7.76528 15.8464 7.81351 15.8464 7.86174C15.7994 7.81351 15.7994 7.86173 15.7523 7.90996Z" fill="#BF73AD"/>
<path d="M21.5362 21.4147C20.5958 21.4147 19.7024 21.2218 18.856 20.836C18.0566 20.4501 17.3983 19.8713 16.9751 19.0996C16.5049 18.3279 16.2698 17.3633 16.2698 16.1575C16.2698 15.1929 16.5049 14.2765 16.9751 13.4565C17.4453 12.6366 18.1507 11.9131 18.95 11.4791C19.8434 10.9967 20.8779 10.7556 22.1005 10.7556C22.1475 10.7556 22.2416 10.7556 22.3826 10.7556C22.5237 10.7556 22.6177 10.7556 22.7588 10.8038V6.75235C22.7588 6.65589 22.8058 6.60767 22.8999 6.60767H25.4391C25.4861 6.60767 25.5331 6.65589 25.5801 6.70412V6.75235V18.9549C25.5801 19.1961 25.5801 19.4372 25.6271 19.7266C25.6742 20.016 25.6742 20.2572 25.6742 20.4501C25.6742 20.5466 25.6271 20.5948 25.5331 20.643C24.8748 20.9324 24.2165 21.1253 23.5111 21.27C22.8058 21.3665 22.1945 21.4147 21.5362 21.4147ZM22.7588 18.8585V13.2154C22.6648 13.1671 22.5237 13.1672 22.4297 13.1672C22.2886 13.1672 22.1475 13.1189 22.0065 13.1189C21.5362 13.1189 21.019 13.2154 20.5958 13.4565C20.1726 13.6977 19.7964 13.9871 19.5143 14.4212C19.2322 14.8552 19.0911 15.3858 19.0911 16.061C19.0911 16.4951 19.1381 16.9774 19.3262 17.3633C19.4673 17.7009 19.6554 18.0385 19.8905 18.2797C20.1256 18.5208 20.4077 18.7138 20.7369 18.8102C21.066 18.9067 21.4422 18.9549 21.7713 18.9549C21.9594 18.9549 22.1475 18.9549 22.2886 18.9067C22.4767 18.9549 22.6177 18.9067 22.7588 18.8585Z" fill="#BF73AD"/>
</svg>
